<svg height="512pt" viewBox="0 0 512.17275 512" width="512pt" xmlns="http://www.w3.org/2000/svg"><path d="m334.507812 385.929688h-276.480468c-25.429688-19.800782-30.550782-57.003907-15.359375-87.382813 17.066406-34.132813 8.53125-76.800781 8.53125-76.800781h290.132812s-8.53125 42.667968 8.535157 76.800781c15.1875 30.378906 10.070312 67.582031-15.359376 87.382813zm0 0" fill="#7facfa"/><path d="m310.871094 385.929688h-252.84375c-25.429688-19.800782-30.550782-57.003907-15.359375-87.382813 17.066406-34.132813 8.53125-76.800781 8.53125-76.800781h266.496093s-8.53125 42.667968 8.535157 76.800781c15.1875 30.378906 10.066406 67.582031-15.359375 87.382813zm0 0" fill="#a4c2f7"/><path d="m483.5 419.890625c-21.804688 21.890625-55.621094 26.34375-82.347656 10.835937-5.238282-2.921874-10.035156-6.570312-14.25-10.835937-26.652344-26.675781-26.632813-69.902344.042968-96.554687 26.671876-26.652344 69.902344-26.632813 96.554688.042968 5.210938 5.207032 9.535156 11.230469 12.796875 17.835938 13.058594 26.253906 7.910156 57.914062-12.796875 78.675781zm0 0" fill="#fff"/><path d="m483.5 419.890625c-21.804688 21.890625-55.621094 26.34375-82.347656 10.835937 2.324218-50.097656 43.625-89.523437 93.78125-89.511718h1.363281c13.058594 26.253906 7.910156 57.914062-12.796875 78.675781zm0 0" fill="#e8edfc"/><path d="m366.933594 474.332031v9.644531c.570312 10.039063-7.035156 18.671876-17.066406 19.371094h-307.199219c-10.03125-.699218-17.640625-9.332031-17.066407-19.371094v-9.644531c0-64.253906 45.824219-116.222656 102.398438-116.222656h136.535156c35.984375.808594 68.753906 20.921875 85.757813 52.652344l5.121093 9.980469c7.675782 16.820312 11.609376 35.105468 11.519532 53.589843zm0 0" fill="#cad9fc"/><path d="m343.296875 474.332031v9.644531c.570313 10.039063-7.035156 18.671876-17.066406 19.371094h-283.5625c-10.03125-.699218-17.640625-9.332031-17.066407-19.371094v-9.644531c0-64.253906 45.824219-116.222656 102.398438-116.222656h112.894531c35.988281.808594 68.757813 20.921875 85.761719 52.652344l5.121094 9.980469c7.675781 16.820312 11.605468 35.105468 11.519531 53.589843zm0 0" fill="#e8edfc"/><path d="m221.867188 307.078125v67.78125c-19.03125 46.285156-25.601563 128.488281-25.601563 128.488281s-6.570313-82.203125-25.597656-128.488281v-67.78125zm0 0" fill="#e8edfc"/><path d="m145.066406 416.308594c-8.53125-9.671875-42.667968-9.671875-42.667968-9.671875 8.535156-48.355469 59.734374-48.355469 59.734374-48.355469 3.394532 5.277344 6.253907 10.882812 8.535157 16.734375 19.027343 46.222656 25.597656 128.332031 25.597656 128.332031-25.597656-29.015625-85.332031-48.359375-85.332031-48.359375 5.167968-17.269531 17.640625-31.40625 34.132812-38.679687zm0 0" fill="#cad9fc"/><path d="m281.601562 454.988281s-59.734374 19.34375-85.335937 48.359375c0 0 6.570313-82.109375 25.601563-128.332031 2.28125-5.851563 5.136718-11.457031 8.53125-16.734375 0 0 51.203124 0 59.734374 48.355469 0 0-34.132812 0-42.667968 9.671875 16.492187 7.273437 28.96875 21.410156 34.136718 38.679687zm0 0" fill="#cad9fc"/><path d="m330.667969 93.917969c-2.15625-19.527344-7.699219-38.527344-16.386719-56.148438-10.214844-19.199219-30.785156-30.574219-52.480469-29.015625-11.046875.820313-21.664062 4.625-30.71875 11.007813-4.574219 4.101562-9.546875 7.730469-14.847656 10.839843-6.09375 2.449219-12.632813 3.613282-19.199219 3.410157h-.769531c-6.820313.289062-13.625-.875-19.96875-3.410157-5.296875-3.109374-10.273437-6.738281-14.847656-10.839843-9.050781-6.382813-19.671875-10.1875-30.71875-11.007813-21.691407-1.558594-42.265625 9.816406-52.480469 29.015625-8.683594 17.621094-14.230469 36.621094-16.382812 56.148438-33.023438 15.359375-53.332032 36.351562-53.332032 59.5625 0 13.824219 14.25 32.683593 27.132813 44.203125-1.027344 2.1875-1.554688 4.578125-1.535157 6.996094.027344 9.414062 7.652344 17.039062 17.066407 17.066406h19.542969c11.773437 53.589844 63.488281 93.867187 125.523437 93.867187 62.039063 0 113.75-40.277343 125.527344-93.867187h19.539062c9.414063-.027344 17.039063-7.652344 17.066407-17.066406.019531-2.417969-.503907-4.808594-1.535157-6.996094 2.476563-1.792969 4.695313-3.671875 6.914063-5.632813l.085937-.085937c11.953125-9.320313 19.292969-23.351563 20.136719-38.484375 0-23.210938-20.308594-44.203125-53.332031-59.5625zm0 0" fill="#a4c2f7"/><path d="m324.265625 198.621094c-.011719 4.046875-.238281 8.09375-.679687 12.117187-.429688 3.753907-1.027344 7.339844-1.792969 11.007813-11.777344 53.589844-63.488281 93.867187-125.527344 93.867187-4.007813 0-7.933594-.171875-11.773437-.425781-56.75-4.78125-102.742188-43.265625-113.75-93.441406-.769532-3.667969-1.367188-7.253906-1.792969-11.007813-.441407-4.023437-.671875-8.070312-.683594-12.117187-.015625-3.675782.183594-7.351563.597656-11.007813.257813-3.070312.769531-6.144531 1.28125-9.214843.511719-2.304688 1.023438-4.523438 1.621094-6.828126.085937-.171874.085937-.425781.171875-.597656 1.023438.085938 1.960938.257813 2.898438.257813 24.167968 3.386719 48.714843-2.597657 68.609374-16.726563 3.78125-2.734375 7.195313-5.945312 10.15625-9.558594 27.671876 21.355469 61.179688 33.792969 96.082032 35.671876 16.34375 1.089843 32.757812 0 48.8125-3.242188 7.519531-1.507812 14.957031-3.414062 22.273437-5.71875.597657 2.21875 1.191407 4.4375 1.621094 6.742188.511719 3.070312 1.023437 6.144531 1.277344 9.214843.417969 3.65625.617187 7.332031.597656 11.007813zm0 0" fill="#cad9fc"/><path d="m300.628906 198.621094c-.011718 4.046875-.238281 8.09375-.683594 12.117187-.425781 3.753907-1.023437 7.339844-1.789062 11.007813-11.007812 50.175781-57.003906 88.660156-113.664062 93.441406-56.75-4.78125-102.742188-43.265625-113.75-93.441406-.769532-3.667969-1.367188-7.253906-1.792969-11.007813-.441407-4.023437-.671875-8.070312-.683594-12.117187-.015625-3.675782.183594-7.351563.597656-11.007813.257813-3.070312.769531-6.144531 1.28125-9.214843.511719-2.304688 1.023438-4.523438 1.621094-6.828126 1.035156.011719 2.066406-.101562 3.070313-.339843 24.167968 3.386719 48.714843-2.597657 68.609374-16.726563 31.839844 19.527344 68.972657 28.65625 106.238282 26.113282 16.121094-1.058594 32.050781-4.066407 47.445312-8.960938.515625 1.878906 1.027344 3.753906 1.367188 5.71875l.257812 1.023438c.511719 3.070312 1.023438 6.144531 1.277344 9.214843.417969 3.65625.617188 7.332031.597656 11.007813zm0 0" fill="#e8edfc"/><path d="m70.742188 221.746094h-19.542969c-9.414063-.027344-17.039063-7.652344-17.066407-17.066406-.019531-2.417969.507813-4.808594 1.535157-6.996094.828125-1.890625 2.015625-3.601563 3.5-5.035156 3.160156-3.242188 7.503906-5.058594 12.03125-5.035157h17.664062c-.414062 3.65625-.613281 7.332031-.597656 11.007813.011719 4.046875.242187 8.09375.683594 12.117187.425781 3.753907 1.023437 7.339844 1.792969 11.007813zm0 0" fill="#cad9fc"/><path d="m358.398438 204.679688c-.027344 9.414062-7.652344 17.039062-17.066407 17.066406h-19.539062c.765625-3.667969 1.363281-7.253906 1.792969-11.007813.441406-4.023437.667968-8.070312.679687-12.117187.019531-3.675782-.179687-7.351563-.597656-11.007813h17.664062c4.527344-.023437 8.871094 1.792969 12.035157 5.035157 1.484374 1.433593 2.671874 3.144531 3.496093 5.035156 1.03125 2.1875 1.554688 4.578125 1.535157 6.996094zm0 0" fill="#cad9fc"/><path d="m100.097656 122.761719c-11.148437 13.429687-20.289062 28.402343-27.136718 44.457031v.085938c-1.109376 3.667968-2.050782 7.339843-2.816407 11.09375-.511719 3.070312-1.023437 6.144531-1.28125 9.214843h-17.578125c-.085937-1.449219-.085937-11.433593-.085937-12.800781.027343-11.566406 1.457031-23.082031 4.265625-34.304688 14.027344-7.859374 29.035156-13.828124 44.632812-17.746093zm0 0" fill="#a4c2f7"/><path d="m341.332031 174.8125c0 1.367188 0 11.351562-.085937 12.800781h-17.578125c-.253907-3.070312-.765625-6.144531-1.277344-9.214843-.769531-3.753907-1.707031-7.425782-2.816406-11.09375v-.085938c-6.851563-16.054688-15.992188-31.027344-27.136719-44.457031 15.59375 3.917969 30.601562 9.886719 44.628906 17.746093 2.808594 11.222657 4.242188 22.738282 4.265625 34.304688zm0 0" fill="#a4c2f7"/><path d="m384 153.480469c-.84375 15.132812-8.183594 29.164062-20.136719 38.484375l-.085937.085937c-2.21875 1.960938-4.4375 3.839844-6.914063 5.632813-.824219-1.890625-2.011719-3.601563-3.496093-5.035156-3.164063-3.242188-7.507813-5.058594-12.035157-5.035157h-.085937c.085937-1.449219.085937-11.433593.085937-12.800781-.023437-11.566406-1.457031-23.082031-4.265625-34.304688-14.027344-7.859374-29.035156-13.828124-44.628906-17.746093-19.359375-5.230469-39.152344-8.683594-59.136719-10.328125h-.085937c-11.859375-1.109375-24.234375-1.621094-36.949219-1.621094s-25.085937.597656-36.949219 1.621094h-.085937c-19.976563 1.699218-39.765625 5.15625-59.132813 10.328125-15.597656 3.917969-30.605468 9.886719-44.632812 17.746093-2.808594 11.222657-4.238282 22.738282-4.265625 34.304688 0 1.367188 0 11.351562.085937 12.800781h-.085937c-4.527344-.023437-8.871094 1.792969-12.03125 5.035157-1.484375 1.433593-2.671875 3.144531-3.5 5.035156-12.882813-11.519532-27.132813-30.378906-27.132813-44.203125 0-23.210938 20.308594-44.203125 53.332032-59.5625 7.386718-3.445313 14.964843-6.46875 22.699218-9.046875h.085938c36.078125-11.46875 73.757812-17.113282 111.613281-16.722656 37.859375-.390626 75.535156 5.253906 111.617187 16.722656h.085938c7.730469 2.578125 15.3125 5.601562 22.699219 9.046875 33.023437 15.359375 53.332031 36.351562 53.332031 59.5625zm0 0" fill="#e8edfc"/><path d="m384 153.480469c-.84375 15.132812-8.183594 29.164062-20.136719 38.484375l-.085937.085937c-2.21875 1.960938-4.4375 3.839844-6.914063 5.632813-.824219-1.890625-2.011719-3.601563-3.496093-5.035156-2.421876-2.484376-5.550782-4.152344-8.960938-4.777344 9.6875-8.878906 15.433594-21.257813 15.957031-34.390625 0-23.210938-20.308593-44.203125-53.332031-59.5625-7.390625-3.445313-14.96875-6.46875-22.699219-9.046875h-.085937c-32.269532-10.34375-65.875-15.921875-99.753906-16.554688 3.839843-.085937 7.847656-.167968 11.773437-.167968 37.859375-.390626 75.535156 5.253906 111.617187 16.722656h.085938c7.730469 2.578125 15.3125 5.601562 22.699219 9.046875 33.023437 15.359375 53.332031 36.351562 53.332031 59.5625zm0 0" fill="#cad9fc"/><path d="m330.667969 93.917969c-7.386719-3.445313-14.96875-6.46875-22.699219-9.046875h-.085938c-.769531-.253906-1.535156-.511719-2.390624-.765625-35.359376-10.949219-72.210938-16.332031-109.226563-15.957031-3.925781 0-7.933594.082031-11.773437.167968h-.511719c-33.734375.714844-67.1875 6.289063-99.328125 16.554688h-.085938c-7.734375 2.578125-15.3125 5.601562-22.699218 9.046875.425781-3.242188.9375-6.570313 1.535156-9.8125 2.519531-16.121094 7.527344-31.753907 14.847656-46.335938 7.5625-14.3125 21.105469-24.511719 36.949219-27.820312h.085937c5.058594-1.171875 10.265625-1.574219 15.445313-1.195313 11.046875.820313 21.667969 4.625 30.71875 11.007813 4.574219 4.101562 9.550781 7.730469 14.847656 10.839843 2.621094 1.15625 5.371094 1.988282 8.195313 2.472657 3.882812.699219 7.828124 1.011719 11.773437.9375h.769531c6.566406.203125 13.105469-.960938 19.199219-3.410157 5.300781-3.109374 10.273437-6.738281 14.847656-10.839843 6.777344-4.742188 14.4375-8.078125 22.527344-9.8125h.085937c2.667969-.613281 5.378907-1.011719 8.105469-1.195313 21.695313-1.558594 42.265625 9.816406 52.480469 29.015625 8.6875 17.621094 14.230469 36.621094 16.386719 56.148438zm0 0" fill="#cad9fc"/><path d="m305.492188 84.105469c-35.359376-10.949219-72.210938-16.332031-109.226563-15.957031-3.925781 0-7.933594.082031-11.773437.167968h-.511719c-3.757813-.085937-7.511719-.167968-11.351563-.167968-37.015625-.375-73.863281 5.007812-109.226562 15.957031 2.519531-16.121094 7.527344-31.753907 14.847656-46.335938 7.5625-14.3125 21.105469-24.511719 36.949219-27.820312h.085937c8.089844 1.734375 15.75 5.070312 22.527344 9.8125 4.574219 4.101562 9.550781 7.730469 14.847656 10.839843 6.339844 2.535157 13.148438 3.699219 19.96875 3.410157h.769532c3.714843-.015625 7.425781-.328125 11.09375-.9375 3.882812.699219 7.828124 1.011719 11.773437.9375h.769531c6.566406.203125 13.105469-.960938 19.199219-3.410157 5.300781-3.109374 10.273437-6.738281 14.847656-10.839843 6.777344-4.742188 14.4375-8.078125 22.527344-9.8125h.085937c15.84375 3.308593 29.390626 13.507812 36.949219 27.820312 7.320313 14.582031 12.328125 30.214844 14.847657 46.335938zm0 0" fill="#e8edfc"/><path d="m350.722656 444.039062 12.070313 12.070313c3.332031 3.332031 3.332031 8.734375 0 12.066406l-30.171875 30.171875c-6.664063 6.664063-17.46875 6.664063-24.136719 0-6.664063-6.667968-6.664063-17.472656 0-24.136718l30.171875-30.171876c3.332031-3.332031 8.734375-3.332031 12.066406 0zm0 0" fill="#e8edfc"/><path d="m35.667969 197.683594c-1.027344 2.1875-1.554688 4.578125-1.535157 6.996094.027344 9.414062 7.652344 17.039062 17.066407 17.066406 0 0 8.535156 42.667968-8.53125 76.800781-15.191407 30.378906-10.070313 67.582031 15.359375 87.382813h3.566406c-23.429688 23.40625-36.40625 55.289062-35.992188 88.402343v9.644531c-.574218 10.039063 7.035157 18.671876 17.066407 19.371094h25.597656c-10.03125-.699218-17.636719-9.332031-17.066406-19.371094v-9.644531c-.414063-33.113281 12.566406-64.996093 35.996093-88.402343h-3.570312c-25.425781-19.800782-30.546875-57.003907-15.359375-87.382813 17.066406-34.132813 8.535156-76.800781 8.535156-76.800781-9.414062-.027344-17.039062-7.652344-17.066406-17.066406-.019531-2.417969.503906-4.808594 1.535156-6.996094-12.886719-11.519532-27.136719-30.378906-27.136719-44.203125 0-23.210938 20.308594-44.203125 53.332032-59.5625.429687-3.242188.941406-6.570313 1.539062-9.8125.09375-.546875.230469-1.078125.324219-1.613281.425781-2.332032.910156-4.632813 1.414063-6.945313.503906-2.3125 1.101562-4.804687 1.707031-7.1875.488281-1.859375.972656-3.71875 1.519531-5.5625.855469-2.953125 1.859375-5.847656 2.894531-8.714844.484375-1.339843.921875-2.695312 1.441407-4.007812 1.625-4.199219 3.476562-8.308594 5.546874-12.304688 1.148438-2.148437 2.441407-4.21875 3.875-6.1875.40625-.582031.851563-1.128906 1.285157-1.707031 1.078125-1.398438 2.210937-2.722656 3.414062-3.992188.503907-.539062 1.007813-1.078124 1.527344-1.589843 1.449219-1.417969 2.976563-2.75 4.574219-3.992188.28125-.222656.539062-.46875.855468-.683593 1.792969-1.324219 3.667969-2.539063 5.613282-3.632813.851562-.488281 1.75-.914063 2.636718-1.359375 1.136719-.570312 2.289063-1.109375 3.472657-1.605469 1.1875-.492187 2.160156-.851562 3.269531-1.269531.972656-.332031 1.960938-.597656 2.960938-.851562.851562-.242188 1.636718-.546876 2.484374-.746094-2.976562-.699219-6-1.167969-9.046874-1.398438-2.652344-.183594-5.3125-.183594-7.960938 0-3.761719.328125-7.476562 1.035156-11.09375 2.109375-1 .28125-1.988281.546875-2.960938.851563-1.109374.386718-2.195312.855468-3.269531 1.273437s-2.335937 1.03125-3.472656 1.601563c-.851563.445312-1.773437.855468-2.636719 1.359375-1.945312 1.09375-3.820312 2.308593-5.613281 3.632812-.28125.214844-.539063.460938-.855469.683594-1.597656 1.242187-3.125 2.578125-4.574218 3.996094-.519532.511719-1.023438 1.046875-1.527344 1.585937-1.195313 1.269532-2.328125 2.558594-3.414063 3.992188-.433593.554687-.851562 1.101562-1.285156 1.707031-1.433594 1.972656-2.726563 4.039063-3.875 6.1875-2.070313 4-3.921875 8.105469-5.546875 12.304687-.519531 1.3125-.957031 2.671876-1.441406 4.011719-1.035156 2.867188-2.023438 5.757813-2.894532 8.710938-.546874 1.84375-1.03125 3.703125-1.519531 5.5625-.605469 2.382812-1.183593 4.773437-1.707031 7.1875-.519531 2.414062-.988281 4.617187-1.414062 6.945312-.09375.539063-.230469 1.066407-.324219 1.613281-.597657 3.242188-1.109375 6.570313-1.539063 9.8125-33.003906 15.394532-53.3125 36.386719-53.3125 59.597657 0 13.824219 14.25 32.683593 27.132813 44.203125zm0 0" fill="#fff"/><path d="m52.769531 392.660156c-16.542969-13.359375-26.417969-33.289062-27.023437-54.542968-.449219-10.261719.898437-20.523438 3.984375-30.320313 1.59375-4.773437 3.496093-9.441406 5.691406-13.96875 1.792969-3.785156 3.320313-7.691406 4.566406-11.691406 5.289063-19.109375 6.253907-39.15625 2.832031-58.683594l16.734376-3.414063c4.007812 22.316407 2.898437 45.25-3.25 67.074219-1.503907 4.828125-3.347657 9.546875-5.523438 14.113281-1.835938 3.789063-3.429688 7.691407-4.777344 11.683594-2.476562 7.878906-3.5625 16.125-3.210937 24.378906.371093 16.28125 7.855469 31.582032 20.480469 41.871094zm0 0" fill="#fff"/><g fill="#428dff"><path d="m392.535156 153.480469c0-24.96875-19.246094-48.050781-54.179687-65.296875-2.476563-18.917969-8.058594-37.292969-16.519531-54.390625-11.839844-22.148438-35.578126-35.285157-60.628907-33.554688-12.621093.910157-24.75 5.261719-35.074219 12.578125-1.953124 1.390625-3.796874 2.9375-5.632812 4.480469-2.335938 2.195313-4.960938 4.058594-7.808594 5.539063-4.992187 1.910156-10.3125 2.808593-15.65625 2.644531h-.769531c-5.617187.25-11.222656-.65625-16.476563-2.664063-2.824218-1.480468-5.433593-3.335937-7.757812-5.519531-1.832031-1.542969-3.675781-3.089844-5.664062-4.507813-10.324219-7.304687-22.449219-11.644531-35.066407-12.550781-25.046875-1.71875-48.765625 11.429688-60.585937 33.578125-8.453125 17.089844-14.03125 35.460938-16.503906 54.367188-34.984376 17.269531-54.210938 40.335937-54.210938 65.296875 0 15.890625 13.253906 34.285156 26.027344 46.8125-.265625 1.449219-.40625 2.914062-.425782 4.386719.035157 11.113281 7.253907 20.925781 17.851563 24.269531 2.5 17.777343 1.320313 35.882812-3.464844 53.1875-.792969 2.464843-1.707031 4.90625-2.5625 7.304687-.832031 1.9375-.832031 4.128906 0 6.066406.71875 2.179688 2.296875 3.96875 4.371094 4.949219 2.015625.953125 4.320313 1.09375 6.433594.386719 2.230469-.941406 4.007812-2.707031 4.957031-4.933594 1.136719-2.894531 2.183594-5.828125 3.125-8.765625 5.265625-18.464843 6.828125-37.792969 4.589844-56.863281h3.34375c13.886718 45.5 51.363281 79.890625 97.886718 89.820312v21.113282c-11.523437.238281-22.832031 3.160156-33.03125 8.53125h-1.101562c-25.433594-.011719-50.089844 8.753906-69.800781 24.824218-5.238281-5.402343-9.265625-11.851562-11.820313-18.925781-1.742187-4.042969-6.125-6.257812-10.410156-5.257812-2.324219.566406-4.285156 2.117187-5.367188 4.25-1.082031 2.136719-1.175781 4.636719-.257812 6.84375 3.367188 9.292969 8.65625 17.773437 15.523438 24.882812-18.523438 20.320313-28.792969 46.820313-28.800782 74.316407v25.601562c0 14.136719 11.460938 25.597656 25.601563 25.597656h277.921875c6.777344.007813 13.28125-2.6875 18.074218-7.484375l36.195313-36.207031c3.332031-3.332031 3.332031-8.730469 0-12.0625l-6.03125-6.035156 18.457031-18.457032c25.394532 20.3125 60.824219 22.449219 88.476563 5.328126 27.648437-17.117188 41.535156-49.78125 34.675781-81.570313-6.855469-31.785156-32.976562-55.820313-65.226562-60.011719-32.246094-4.195312-63.644532 12.359375-78.40625 41.335938.398437-14.550782-2.828126-28.96875-9.386719-41.964844-8.855469-20.695312-11.839844-43.429688-8.625-65.707031 12.285156-3.464844 19.9375-15.6875 17.6875-28.253907.980469-.855468 2.007812-1.5625 2.996093-2.449218 13.816407-10.910156 22.226563-27.273438 23.058594-44.859375zm-306.734375-111.734375c8.648438-16.21875 26.042969-25.816406 44.375-24.476563 9.464844.71875 18.5625 3.984375 26.324219 9.449219 1.578125 1.117188 3.046875 2.371094 4.523438 3.617188 3.511718 3.230468 7.472656 5.9375 11.757812 8.039062 7.445312 3.042969 15.449219 4.464844 23.484375 4.171875h.855469c7.730468.1875 15.417968-1.230469 22.578125-4.15625 4.292969-2.105469 8.261719-4.816406 11.785156-8.054687 1.476563-1.246094 2.941406-2.5 4.488281-3.601563 7.777344-5.472656 16.886719-8.742187 26.367188-9.464844 18.324218-1.339843 35.71875 8.242188 44.375 24.449219 6.109375 12.128906 10.492187 25.054688 13.019531 38.398438-2.917969-1.109376-5.800781-2.207032-9.019531-3.308594-.203125-.070313-.425782-.128906-.648438-.1875-36.792968-11.65625-75.207031-17.394532-113.800781-17.007813-38.582031-.390625-76.980469 5.339844-113.765625 16.980469-.222656.0625-.460938.121094-.683594.195312-3.222656 1.101563-6.101562 2.203126-9.019531 3.3125 2.527344-13.328124 6.90625-26.238281 13.003906-38.355468zm-68.734375 111.734375c0-18.636719 17.636719-37.546875 48.46875-51.859375 6.90625-3.226563 13.992188-6.058594 21.222656-8.480469.195313-.050781.410157-.109375.605469-.179687 35.203125-11.183594 71.96875-16.679688 108.902344-16.28125 36.9375-.398438 73.699219 5.097656 108.902344 16.28125.191406.066406.386719.125.582031.171874 7.269531 2.433594 14.390625 5.28125 21.332031 8.53125 30.746094 14.269532 48.382813 33.179688 48.382813 51.816407-1.046875 12.644531-7.3125 24.28125-17.285156 32.117187-2.421876-2.179687-5.246094-3.867187-8.3125-4.964844 0-2.660156 0-5.171874 0-5.820312-.027344-12.257812-1.542969-24.46875-4.515626-36.359375v-.058594c-.539062-2.199219-1.953124-4.078125-3.90625-5.214843-14.660156-8.246094-30.351562-14.503907-46.660156-18.601563-32.148437-8.460937-65.277344-12.597656-98.519531-12.296875-33.179687-.25-66.253906 3.867188-98.363281 12.234375-16.324219 4.109375-32.03125 10.375-46.703125 18.628906-1.839844 1.273438-3.21875 3.109375-3.925781 5.230469v.0625c-3.003907 11.890625-4.550782 24.109375-4.605469 36.375v5.8125c-2.808594.996094-5.414063 2.496094-7.679688 4.429688-10.53125-11.195313-17.921875-23.894532-17.921875-31.574219zm42.667969 25.597656v-4.265625c.035156-9.632812 1.121094-19.230469 3.234375-28.628906 4.84375-2.652344 9.839844-5.019532 14.957031-7.089844-4.796875 7.949219-9.070312 16.199219-12.800781 24.703125-.066406.152344-.042969.324219-.101562.476563-.058594.15625-.1875.28125-.238282.453124-.46875 1.519532-.800781 3.269532-1.21875 4.871094-.050781.125-.089844.25-.121094.378906v.074219c-.582031 2.269531-1.21875 4.421875-1.707031 6.828125-.128906.726563-.179687 1.449219-.296875 2.175782zm45.226563-48.699219c29.84375-7.527344 60.527343-11.234375 91.304687-11.03125 30.78125-.25 61.46875 3.453125 91.308594 11.023438 8.765625 10.867187 16.144531 22.78125 21.964843 35.472656-51.597656 15.285156-107.386718 5.152344-150.308593-27.304688-1.785157-1.570312-4.144531-2.324218-6.507813-2.078124-2.367187.242187-4.523437 1.464843-5.949218 3.367187-.195313.261719-19.003907 24.496094-62.539063 23.429687 5.589844-11.738281 12.546875-22.773437 20.726563-32.878906zm225.78125 46.363282c-.503907-2.476563-1.175782-4.761719-1.789063-7.125-.054687-.179688 0-.351563-.0625-.53125-.058594-.175782-.109375-.160157-.144531-.253907-.359375-1.347656-.632813-2.808593-1.03125-4.105469-.050782-.171874-.179688-.289062-.238282-.453124-.0625-.160157 0-.324219-.105468-.476563-3.726563-8.503906-8-16.753906-12.796875-24.703125 5.117187 2.070312 10.113281 4.4375 14.957031 7.089844 2.125 9.398437 3.21875 18.996094 3.269531 28.628906v4.265625h-1.707031c-.136719-.78125-.1875-1.542969-.332031-2.335937zm-279.542969 36.472656c-4.710938 0-8.53125-3.820313-8.53125-8.535156-.003907-2.296876.941406-4.496094 2.609375-6.074219 1.582031-1.609375 3.753906-2.496094 6.007812-2.457031h8.535156c0 .851562-.121093 1.652343-.121093 2.464843.011719 4.363281.253906 8.71875.734375 13.054688.058594.53125.1875 1.023437.253906 1.546875zm26.230469-3.414063c-1.113282-9.890625-.75-19.890625 1.078124-29.671875 27.507813 2.992188 55.023438-5.597656 75.945313-23.703125 31.234375 21.785157 68.429687 33.40625 106.511719 33.277344 18.027344-.121094 35.960937-2.617187 53.335937-7.429687.90625 5.398437 1.386719 10.863281 1.433594 16.339843-.007813 3.722657-.21875 7.445313-.632813 11.144531-6.261718 55.507813-57.351562 97.320313-118.835937 97.320313-61.480469 0-112.570313-41.8125-118.835937-97.277344zm277.71875 226.601563-4.417969-4.429688c-3.335938-3.328125-8.734375-3.328125-12.066407 0l-36.21875 36.207032c-6.949218 6.988281-9.273437 17.347656-5.972656 26.632812h-78.675781c20.507813-14.507812 42.902344-26.144531 66.558594-34.59375 4.277343-1.460938 6.671875-6.003906 5.460937-10.359375-4.054687-14.894531-12.746094-28.113281-24.8125-37.742187 8.261719-1.734376 16.683594-2.621094 25.128906-2.636719 2.507813 0 4.890626-1.105469 6.511719-3.019531 1.621094-1.917969 2.316407-4.449219 1.902344-6.921876-1.660156-10.84375-5.835937-21.148437-12.195313-30.089843 33.492188 7.984375 59.910157 33.691406 68.796876 66.953125zm-75.785157-43.597656c-12.664062.914062-30.890625 3.839843-38.457031 12.921874-1.75 2.101563-2.386719 4.914063-1.710938 7.5625.675782 2.652344 2.582032 4.816407 5.121094 5.824219 11.9375 5.761719 21.355469 15.691407 26.480469 27.914063-22.710937 8.613281-44.171875 20.222656-63.8125 34.515625 3.226563-28.6875 10.238281-78.503907 22.554687-110.480469.101563-.203125.179688-.410156.261719-.621094 1.546875-4.046875 3.324219-7.996094 5.328125-11.835937 20.1875 1.707031 37.5 15.09375 44.234375 34.199219zm-83.097656-68.65625c5.707031-.039063 11.402344-.398438 17.066406-1.085938v42.898438c-7.761719 22.339843-13.472656 45.339843-17.066406 68.71875-3.589844-23.378907-9.304687-46.378907-17.066406-68.71875v-42.898438c5.664062.6875 11.363281 1.046875 17.066406 1.085938zm-33.535156 46.335937c.085937.203125.164062.40625.257812.613281 12.320313 31.980469 19.328125 81.78125 22.558594 110.480469-19.636719-14.300781-41.097656-25.921875-63.808594-34.550781 5.097657-12.238282 14.511719-22.175782 26.453125-27.9375 2.539063-1.007813 4.445313-3.175782 5.121094-5.824219.675781-2.652344.039062-5.464844-1.710938-7.566406-7.566406-9.078125-25.792968-12.003907-38.457031-12.917969 3.585938-11.246094 11.242188-20.75 21.46875-26.640625.136719-.0625.246094-.15625.375-.214844 6.917969-3.871093 14.523438-6.355469 22.390625-7.3125 2.011719 3.847657 3.800782 7.8125 5.351563 11.871094zm-128.597657 115.796875v-25.601562c.078126-43.378907 29.839844-81.066407 72.023438-91.195313-6.347656 8.929687-10.515625 19.222656-12.171875 30.054687-.414063 2.472657.285156 5.003907 1.90625 6.921876 1.617187 1.914062 4 3.019531 6.507813 3.019531 8.445312.019531 16.863281.902343 25.125 2.636719-12.070313 9.628906-20.757813 22.847656-24.816407 37.742187-1.210937 4.355469 1.183594 8.898437 5.460938 10.359375 23.667969 8.4375 46.070312 20.078125 66.578125 34.59375h-132.078125c-4.714844 0-8.535157-3.820312-8.535157-8.53125zm292.453126 6.03125c-2.152344 2.15625-5.296876 3-8.242188 2.210938-2.945312-.785157-5.246094-3.085938-6.035156-6.03125-.792969-2.945313.050781-6.089844 2.203125-8.246094l30.183593-30.171875 12.066407 12.066406zm66.375-162.917969c23.328124-23.324219 61.148437-23.324219 84.472656.003907 23.328125 23.328124 23.328125 61.144531 0 84.472656-23.324219 23.328125-61.144532 23.328125-84.472656.003906-11.253907-11.175781-17.582032-26.378906-17.582032-42.242188 0-15.859374 6.328125-31.0625 17.582032-42.238281zm-34.433594 40.285157c-.496094 18.070312 5.414062 35.734374 16.683594 49.871093l-5.65625 5.65625c-4.832032-14.417969-12.605469-27.679687-22.828126-38.9375 4.730469-4.917969 8.707032-10.507812 11.800782-16.589843zm-24.285156 4.746093c-19.722657-15.96875-44.332032-24.683593-69.707032-24.679687h-1.101562c-10.199219-5.371094-21.507813-8.292969-33.035156-8.53125v-21.113282c46.523437-9.933593 83.996093-44.320312 97.878906-89.820312h3.234375c-3.054688 24.550781.636719 49.46875 10.675781 72.078125 12.777344 23.300781 9.601562 52.109375-7.945312 72.066406zm7.089843-161.210937h-9.53125c.070313-.539063.207031-1.050782.265625-1.589844.480469-4.320312.722656-8.664062.734375-13.011719 0-.855469-.101562-1.65625-.121093-2.464843h8.652343c2.300781-.007813 4.503907.9375 6.085938 2.609374 1.582031 1.5625 2.464843 3.699219 2.449219 5.921876 0 4.714843-3.820313 8.535156-8.535157 8.535156zm0 0"/><path d="m401.066406 366.8125c2.261719 0 4.433594-.898438 6.035156-2.5l17.066407-17.066406c3.230469-3.347656 3.1875-8.671875-.105469-11.960938-3.292969-3.292968-8.613281-3.339844-11.960938-.105468l-17.066406 17.066406c-2.441406 2.441406-3.171875 6.109375-1.851562 9.300781 1.320312 3.1875 4.433594 5.265625 7.882812 5.265625zm0 0"/><path d="m420.632812 381.378906c3.332032 3.332032 8.734376 3.332032 12.066407 0l34.132812-34.132812c3.234375-3.347656 3.1875-8.671875-.101562-11.960938-3.292969-3.292968-8.617188-3.339844-11.964844-.105468l-34.132813 34.132812c-3.332031 3.332031-3.332031 8.734375 0 12.066406zm0 0"/><path d="m30.949219 332.679688c.472656.269531.988281.457031 1.519531.554687.5625.105469 1.132812.167969 1.707031.1875 2.238281-.03125 4.402344-.8125 6.144531-2.21875.777344-.691406 1.421876-1.519531 1.894532-2.449219 1.53125-2.734375 1.316406-6.117187-.554688-8.636718-.675781-.859376-1.488281-1.601563-2.40625-2.199219-.921875-.640625-1.949218-1.105469-3.039062-1.375-2.21875-.496094-4.542969-.046875-6.417969 1.246093-1.953125 1.484376-3.210937 3.707032-3.480469 6.144532-.34375 2.445312.359375 4.921875 1.929688 6.828125l1.238281 1.140625c.449219.328125.941406.589844 1.464844.777344zm0 0"/></g></svg>